<?xml version="1.0" encoding="iso-8859-1"?>
<!-- Generator: Adobe Illustrator 19.0.0, SVG Export Plug-In . SVG Version: 6.00 Build 0)  -->
<svg version="1.1" id="Layer_1" xmlns="http://www.w3.org/2000/svg" xmlns:xlink="http://www.w3.org/1999/xlink" x="0px" y="0px"
	 viewBox="0 0 330 330" style="enable-background:new 0 0 330 330;" xml:space="preserve">
<g id="XMLID_233_">
	<path id="XMLID_235_" d="M95,115c5.26,0,10.42-2.13,14.14-5.86c3.73-3.72,5.86-8.88,5.86-14.14c0-5.26-2.13-10.42-5.86-14.14
		C105.42,77.14,100.26,75,95,75c-5.27,0-10.42,2.14-14.14,5.86C77.14,84.58,75,89.73,75,95c0,5.27,2.14,10.42,5.86,14.14
		C84.58,112.87,89.74,115,95,115z"/>
	<path id="XMLID_236_" d="M95,185c5.27,0,10.42-2.14,14.14-5.86c3.73-3.72,5.86-8.88,5.86-14.14c0-5.26-2.13-10.42-5.86-14.14
		c-3.72-3.72-8.87-5.86-14.14-5.86s-10.42,2.14-14.14,5.86C77.14,154.58,75,159.73,75,165s2.14,10.42,5.86,14.14
		C84.58,182.86,89.74,185,95,185z"/>
	<path id="XMLID_237_" d="M95,255c5.27,0,10.42-2.13,14.14-5.86c3.73-3.72,5.86-8.88,5.86-14.14c0-5.26-2.13-10.42-5.86-14.14
		c-3.72-3.73-8.88-5.86-14.14-5.86c-5.26,0-10.42,2.13-14.14,5.86C77.13,224.58,75,229.74,75,235c0,5.26,2.13,10.42,5.86,14.14
		C84.58,252.87,89.74,255,95,255z"/>
	<path id="XMLID_238_" d="M235,115c5.26,0,10.42-2.13,14.14-5.86c3.73-3.72,5.86-8.88,5.86-14.14c0-5.26-2.13-10.42-5.86-14.14
		C245.42,77.14,240.26,75,235,75c-5.27,0-10.42,2.14-14.14,5.86C217.14,84.58,215,89.73,215,95c0,5.27,2.14,10.42,5.86,14.14
		C224.58,112.87,229.74,115,235,115z"/>
	<path id="XMLID_239_" d="M235,185c5.27,0,10.42-2.14,14.14-5.86c3.73-3.72,5.86-8.87,5.86-14.14s-2.13-10.42-5.86-14.14
		c-3.72-3.72-8.87-5.86-14.14-5.86s-10.42,2.14-14.14,5.86c-3.72,3.72-5.86,8.87-5.86,14.14s2.14,10.42,5.86,14.14
		C224.58,182.86,229.74,185,235,185z"/>
	<path id="XMLID_240_" d="M235,255c5.27,0,10.42-2.13,14.14-5.86c3.73-3.72,5.86-8.88,5.86-14.14c0-5.27-2.13-10.42-5.86-14.14
		c-3.72-3.73-8.88-5.86-14.14-5.86c-5.26,0-10.42,2.13-14.14,5.86c-3.72,3.72-5.86,8.87-5.86,14.14s2.14,10.42,5.86,14.14
		C224.58,252.87,229.74,255,235,255z"/>
	<path id="XMLID_241_" d="M315,0.001H15c-8.284,0-15,6.716-15,15V315c0,8.284,6.716,15,15,15h300c8.284,0,15-6.716,15-15V15.001
		C330,6.717,323.285,0.001,315,0.001z M300,300H30V30.001h270V300z"/>
</g>
<g>
</g>
<g>
</g>
<g>
</g>
<g>
</g>
<g>
</g>
<g>
</g>
<g>
</g>
<g>
</g>
<g>
</g>
<g>
</g>
<g>
</g>
<g>
</g>
<g>
</g>
<g>
</g>
<g>
</g>
</svg>
